<?xml version="1.0" encoding="UTF-8" standalone="no"?>
<!DOCTYPE svg PUBLIC "-//W3C//DTD SVG 1.1//EN" "http://www.w3.org/Graphics/SVG/1.1/DTD/svg11.dtd">
<svg width="100%" height="100%" viewBox="0 0 237 102" version="1.1" xmlns="http://www.w3.org/2000/svg" xmlns:xlink="http://www.w3.org/1999/xlink" xml:space="preserve" xmlns:serif="http://www.serif.com/" style="fill-rule:evenodd;clip-rule:evenodd;stroke-linejoin:round;stroke-miterlimit:2;">
    <g transform="matrix(1,0,0,1,-736.712598,-987.017757)">
        <g transform="matrix(1,0,0,1,0,2.746852)">
            <g id="Baking-Casserole-Dish" serif:id="Baking/Casserole Dish" transform="matrix(2.459379,0,0,2.127699,706.004508,908.929322)">
                <path d="M41.285,82.426C45.525,81.609 93.457,72.36 96.28,71.816C101.033,70.899 102.735,69.06 103.743,66.612C104.75,64.165 107.574,55.316 108.327,53.057C108.565,52.344 109.024,49.787 106.803,47.998C104.583,46.209 95.822,40.102 94.28,39.115C91.599,37.399 83.484,34.549 75.094,35.66C66.704,36.77 23.397,43.433 20.189,43.926C16.981,44.42 11.281,47.265 12.712,50.571C14.144,53.878 16.454,60.237 17.375,63.259C17.792,64.629 18.773,65.556 19.95,67.118C21.505,69.183 28.259,78.258 29.196,79.393C30.134,80.528 32.229,84.174 41.285,82.426ZM22.019,59.687C18.581,54.592 16.246,51.113 15.922,50.571C15.51,49.884 14.569,49.157 15.852,47.807C16.487,46.775 16.33,46.824 15.922,47.154C14.949,47.94 13.877,48.614 15.104,50.571C16.331,52.528 21.88,61.057 22.581,61.816C23.282,62.575 29.08,68.537 44.049,65.799C59.017,63.061 100.946,55.408 102.388,55.127C103.83,54.847 102.735,54.481 101.914,54.481C101.666,54.481 96.367,55.408 89.071,56.708C88.856,56.661 88.607,56.582 88.358,56.447C87.75,56.119 82.39,51.972 82.068,51.732C81.242,51.116 78.188,50.476 74.45,51.01C70.909,51.516 26.982,58.738 22.019,59.687ZM22.391,60.238C22.663,60.641 22.941,61.053 23.225,61.474C25.86,65.377 38.271,66.584 44.049,64.886C44.6,64.724 70.993,59.933 87.942,56.909C86.841,56.106 84.028,53.977 82.068,52.545C80.258,51.223 75.268,51.693 74.45,51.732C74.147,51.746 25.449,59.776 22.391,60.238Z" style="fill:rgb(89,89,89);"/>
            </g>
        </g>
    </g>
</svg>
