<svg xmlns="http://www.w3.org/2000/svg" viewBox="0 0 32 32" width="32" height="32">
  <!-- Lid -->
  <ellipse cx="16" cy="9" rx="11" ry="2.5" fill="none" stroke="#D4A574" stroke-width="1.8"/>
  <path d="M5 9 C5 9, 5 7.5, 16 7.5 C27 7.5, 27 9, 27 9" fill="#D4A574" opacity="0.25"/>
  <!-- Lid knob -->
  <rect x="14" y="4.5" width="4" height="3" rx="1.5" fill="#D4A574"/>
  <!-- Pot body -->
  <path d="M5.5 9.5 C5.5 9.5, 5 11, 5 14 L6 25 C6 27, 8 28.5, 16 28.5 C24 28.5, 26 27, 26 25 L27 14 C27 11, 26.5 9.5, 26.5 9.5" fill="none" stroke="#D4A574" stroke-width="1.8" stroke-linecap="round"/>
  <!-- Handles -->
  <path d="M5 14.5 C2.5 14.5, 2 16, 2 17 C2 18, 2.5 19.5, 5 19.5" fill="none" stroke="#D4A574" stroke-width="1.6" stroke-linecap="round"/>
  <path d="M27 14.5 C29.5 14.5, 30 16, 30 17 C30 18, 29.5 19.5, 27 19.5" fill="none" stroke="#D4A574" stroke-width="1.6" stroke-linecap="round"/>
  <!-- Steam wisps -->
  <path d="M12 3.5 C12 2, 13 1, 13 0" fill="none" stroke="#D4A574" stroke-width="0.8" stroke-linecap="round" opacity="0.5"/>
  <path d="M16 3 C16 1.5, 16.5 0.5, 16.5 0" fill="none" stroke="#D4A574" stroke-width="0.8" stroke-linecap="round" opacity="0.5"/>
  <path d="M20 3.5 C20 2, 19 1, 19 0" fill="none" stroke="#D4A574" stroke-width="0.8" stroke-linecap="round" opacity="0.5"/>
</svg>
