<?xml version="1.0" encoding="UTF-8" standalone="no"?>
<!DOCTYPE svg PUBLIC "-//W3C//DTD SVG 1.1//EN" "http://www.w3.org/Graphics/SVG/1.1/DTD/svg11.dtd">
<svg width="100%" height="100%" viewBox="0 0 186 148" version="1.1" xmlns="http://www.w3.org/2000/svg" xmlns:xlink="http://www.w3.org/1999/xlink" xml:space="preserve" xmlns:serif="http://www.serif.com/" style="fill-rule:evenodd;clip-rule:evenodd;stroke-linejoin:round;stroke-miterlimit:2;">
    <g transform="matrix(1,0,0,1,-393.011811,-2076.090519)">
        <g transform="matrix(0.954746,0,0,0.600049,80.441535,-57.933997)">
            <g id="Soup-Pot" serif:id="Soup Pot" transform="matrix(2.05552,0,0,2.829486,303.107969,3530.423268)">
                <path d="M24.936,23.671C24.925,22.713 24.866,21.901 24.717,21.351C23.054,20.697 23.463,19.545 23.463,16.929C23.463,14.313 23.463,14.223 22.276,13.33C20.65,12.106 14.127,11.152 12.882,10.607C11.637,10.062 11.282,9.744 12.882,9.299C16.18,8.382 24.708,14.095 24.913,13.261C25.118,12.428 24.526,11.532 25.642,11.223C30.48,9.883 91.686,10.6 92.586,10.954C93.907,11.474 92.43,13.428 93.241,13.321C95.349,13.045 102.035,8.411 105.228,9.299C106.828,9.744 106.473,10.062 105.228,10.607C103.983,11.152 97.46,12.106 95.834,13.33C94.647,14.223 94.647,14.313 94.647,16.929C94.647,19.545 95.056,20.697 93.393,21.351C93.31,21.656 93.255,22.042 93.221,22.488C93.226,22.927 93.235,23.388 93.246,23.864L93.221,23.864C93.301,26.796 93.458,88.729 93.23,90.178C92.911,92.207 91.03,94.855 85.994,95.235C76.908,95.922 43.646,96.289 32.083,95.235C27.673,94.834 25.332,93.095 24.913,90.683C24.594,88.85 24.862,26.671 24.938,23.864L24.936,23.671Z" style="fill:rgb(89,89,89);"/>
            </g>
        </g>
    </g>
</svg>
