<?xml version="1.0" encoding="UTF-8" standalone="no"?>
<!DOCTYPE svg PUBLIC "-//W3C//DTD SVG 1.1//EN" "http://www.w3.org/Graphics/SVG/1.1/DTD/svg11.dtd">
<svg width="100%" height="100%" viewBox="0 0 57 49" version="1.1" xmlns="http://www.w3.org/2000/svg" xmlns:xlink="http://www.w3.org/1999/xlink" xml:space="preserve" xmlns:serif="http://www.serif.com/" style="fill-rule:evenodd;clip-rule:evenodd;stroke-linejoin:round;stroke-miterlimit:2;">
    <g transform="matrix(1,0,0,1,-1195.451841,-2267.198808)">
        <g transform="matrix(0.962446,0,0,0.600049,78.661378,1028.914424)">
            <g id="Mince" transform="matrix(6.598671,0,0,10.583899,680.728341,1793.973949)">
                <g id="Mince-0.2cm--1-16-" serif:id="Mince 0.2cm, 1/16&quot;" transform="matrix(0.126811,0.061996,-0.061454,0.125703,71.495278,23.331399)">
                    <g id="Top" transform="matrix(0.135316,-0.078125,0.15625,0.090211,31.96452,29.527559)">
                        <path d="M0,62.19C0,61.739 -0.365,61.372 -0.815,61.372L-22.807,61.372C-23.257,61.372 -23.622,61.739 -23.622,62.19L-12.468,81.613C-12.468,82.065 -12.103,82.431 -11.653,82.431L-0.815,81.829C-0.365,81.829 0,81.463 0,81.011L0,62.19Z" style="fill:rgb(89,89,89);"/>
                    </g>
                    <g id="Side" transform="matrix(0.135316,0.078125,0,0.180422,31.927694,29.548821)">
                        <path d="M82.716,11.616C82.716,11.164 82.351,10.797 81.901,10.797L48.059,20.457C47.609,20.457 47.244,20.824 47.244,21.276L47.244,40.096C47.244,40.548 47.609,40.915 48.059,40.915L62.102,41.304C62.551,41.304 62.916,40.937 62.916,40.485L82.716,11.616Z" style="fill:rgb(89,89,89);"/>
                    </g>
                    <g id="Front" transform="matrix(0.135316,-0.078125,-0,0.180422,32.013956,29.556101)">
                        <path d="M94.488,82.647C94.488,82.196 94.123,81.829 93.674,81.829L83.531,82.431C83.081,82.431 82.716,82.798 82.716,83.25L62.916,94.973C62.916,95.424 63.281,95.791 63.731,95.791L93.674,102.286C94.123,102.286 94.488,101.92 94.488,101.468L94.488,82.647Z" style="fill:rgb(89,89,89);"/>
                    </g>
                </g>
                <g id="Mince-0.2cm--1-16-1" serif:id="Mince 0.2cm, 1/16&quot;" transform="matrix(0.139811,0.019421,-0.019251,0.13859,70.233327,26.090334)">
                    <g id="Top1" serif:id="Top" transform="matrix(0.135316,-0.078125,0.15625,0.090211,31.96452,29.527559)">
                        <path d="M-6.725,65.332C-6.725,64.88 -7.09,64.514 -7.539,64.514L-22.807,61.372C-23.257,61.372 -23.622,61.739 -23.622,62.19L-23.622,81.011C-23.622,81.463 -23.257,81.829 -22.807,81.829L-0.815,81.829C-0.365,81.829 0,81.463 0,81.011L-6.725,65.332Z" style="fill:rgb(89,89,89);"/>
                    </g>
                    <g id="Side1" serif:id="Side" transform="matrix(0.135316,0.078125,0,0.180422,31.927694,29.548821)">
                        <path d="M70.866,21.276C70.866,20.824 70.501,20.457 70.051,20.457L48.059,20.457C47.609,20.457 47.244,20.824 47.244,21.276L47.244,40.096C47.244,40.548 47.609,40.915 48.059,40.915L59.535,41.137C59.985,41.137 60.35,40.77 60.35,40.319L70.866,21.276Z" style="fill:rgb(89,89,89);"/>
                    </g>
                    <g id="Front1" serif:id="Front" transform="matrix(0.135316,-0.078125,-0,0.180422,32.013956,29.556101)">
                        <path d="M94.488,82.647C94.488,82.196 94.123,81.829 93.674,81.829L71.681,81.829C71.231,81.829 70.866,82.196 70.866,82.647L60.35,92.583C60.35,93.035 60.715,93.402 61.165,93.402L93.674,102.286C94.123,102.286 94.488,101.92 94.488,101.468L94.488,82.647Z" style="fill:rgb(89,89,89);"/>
                    </g>
                </g>
                <g id="Mince-0.2cm--1-16-2" serif:id="Mince 0.2cm, 1/16&quot;" transform="matrix(0.120765,-0.073076,0.072438,0.11971,69.315949,30.674245)">
                    <g id="Top2" serif:id="Top" transform="matrix(0.135316,-0.078125,0.15625,0.090211,31.96452,29.527559)">
                        <path d="M-6.725,65.332C-6.725,64.88 -7.09,64.514 -7.539,64.514L-22.807,61.372C-23.257,61.372 -23.622,61.739 -23.622,62.19L-23.622,81.011C-23.622,81.463 -23.257,81.829 -22.807,81.829L-0.815,81.829C-0.365,81.829 0,81.463 0,81.011L-6.725,65.332Z" style="fill:rgb(89,89,89);"/>
                    </g>
                    <g id="Side2" serif:id="Side" transform="matrix(0.135316,0.078125,0,0.180422,31.927694,29.548821)">
                        <path d="M70.866,21.276C70.866,20.824 70.501,20.457 70.051,20.457L48.059,20.457C47.609,20.457 47.244,20.824 47.244,21.276L47.244,40.096C47.244,40.548 47.609,40.915 48.059,40.915L59.535,41.137C59.985,41.137 60.35,40.77 60.35,40.319L70.866,21.276Z" style="fill:rgb(89,89,89);"/>
                    </g>
                    <g id="Front2" serif:id="Front" transform="matrix(0.135316,-0.078125,-0,0.180422,32.013956,29.556101)">
                        <path d="M94.488,82.647C94.488,82.196 94.123,81.829 93.674,81.829L71.681,81.829C71.231,81.829 70.866,82.196 70.866,82.647L60.35,92.583C60.35,93.035 60.715,93.402 61.165,93.402L93.674,102.286C94.123,102.286 94.488,101.92 94.488,101.468L94.488,82.647Z" style="fill:rgb(89,89,89);"/>
                    </g>
                </g>
                <g id="Mince-0.2cm--1-16-3" serif:id="Mince 0.2cm, 1/16&quot;" transform="matrix(0.130901,-0.052813,0.052352,0.129758,66.790638,28.922703)">
                    <g id="Top3" serif:id="Top" transform="matrix(0.135316,-0.078125,0.15625,0.090211,31.96452,29.527559)">
                        <path d="M0,62.19C0,61.739 -0.365,61.372 -0.815,61.372L-22.807,61.372C-23.257,61.372 -23.622,61.739 -23.622,62.19L-29.565,81.368C-29.565,81.82 -29.2,82.186 -28.75,82.186L-6.333,88.944C-5.883,88.944 -5.518,88.577 -5.518,88.126L0,62.19Z" style="fill:rgb(89,89,89);"/>
                    </g>
                    <g id="Side3" serif:id="Side" transform="matrix(0.135316,0.078125,0,0.180422,31.927694,29.548821)">
                        <path d="M65.336,26.422C65.336,25.971 64.971,25.604 64.521,25.604L48.059,20.457C47.609,20.457 47.244,20.824 47.244,21.276L51.365,38.204C51.365,38.655 51.73,39.022 52.179,39.022L70.051,40.915C70.501,40.915 70.866,40.548 70.866,40.096L65.336,26.422Z" style="fill:rgb(89,89,89);"/>
                    </g>
                    <g id="Front3" serif:id="Front" transform="matrix(0.135316,-0.078125,-0,0.180422,32.013956,29.556101)">
                        <path d="M97.186,89.762C97.186,89.311 96.821,88.944 96.371,88.944L66.15,82.186C65.701,82.186 65.336,82.553 65.336,83.005L70.866,101.468C70.866,101.92 71.231,102.286 71.681,102.286L93.674,102.286C94.123,102.286 94.488,101.92 94.488,101.468L97.186,89.762Z" style="fill:rgb(89,89,89);"/>
                    </g>
                </g>
                <g id="Mince-0.2cm--1-16-4" serif:id="Mince 0.2cm, 1/16&quot;" transform="matrix(0.089102,0.109477,-0.108521,0.088324,75.401914,21.783023)">
                    <g id="Top4" serif:id="Top" transform="matrix(0.135316,-0.078125,0.15625,0.090211,31.96452,29.527559)">
                        <path d="M0,62.19C0,61.739 -0.365,61.372 -0.815,61.372L-21.971,63.021C-22.421,63.021 -22.786,63.388 -22.786,63.84L-23.622,81.011C-23.622,81.463 -23.257,81.829 -22.807,81.829L4.655,77.871C5.104,77.871 5.469,77.504 5.469,77.052L0,62.19Z" style="fill:rgb(89,89,89);"/>
                    </g>
                    <g id="Side4" serif:id="Side" transform="matrix(0.135316,0.078125,0,0.180422,31.927694,29.548821)">
                        <path d="M70.866,21.276C70.866,20.824 70.501,20.457 70.051,20.457L50.8,19.733C50.35,19.733 49.985,20.1 49.985,20.551L47.244,40.096C47.244,40.548 47.609,40.915 48.059,40.915L70.051,40.915C70.501,40.915 70.866,40.548 70.866,40.096L70.866,21.276Z" style="fill:rgb(89,89,89);"/>
                    </g>
                    <g id="Front4" serif:id="Front" transform="matrix(0.135316,-0.078125,-0,0.180422,32.013956,29.556101)">
                        <path d="M95.386,78.689C95.386,78.237 95.021,77.871 94.572,77.871L71.681,81.829C71.231,81.829 70.866,82.196 70.866,82.647L70.866,101.468C70.866,101.92 71.231,102.286 71.681,102.286L98.159,106.582C98.608,106.582 98.973,106.216 98.973,105.764L95.386,78.689Z" style="fill:rgb(89,89,89);"/>
                    </g>
                </g>
                <g id="Mince-0.2cm--1-16-5" serif:id="Mince 0.2cm, 1/16&quot;" transform="matrix(-0.067346,0.124052,-0.122968,-0.066758,85.01764,28.505062)">
                    <g id="Top5" serif:id="Top" transform="matrix(0.135316,-0.078125,0.15625,0.090211,31.96452,29.527559)">
                        <path d="M0,62.19C0,61.739 -0.365,61.372 -0.815,61.372L-21.971,63.021C-22.421,63.021 -22.786,63.388 -22.786,63.84L-23.622,81.011C-23.622,81.463 -23.257,81.829 -22.807,81.829L4.655,77.871C5.104,77.871 5.469,77.504 5.469,77.052L0,62.19Z" style="fill:rgb(89,89,89);"/>
                    </g>
                    <g id="Side5" serif:id="Side" transform="matrix(0.135316,0.078125,0,0.180422,31.927694,29.548821)">
                        <path d="M70.866,21.276C70.866,20.824 70.501,20.457 70.051,20.457L50.8,19.733C50.35,19.733 49.985,20.1 49.985,20.551L47.244,40.096C47.244,40.548 47.609,40.915 48.059,40.915L70.051,40.915C70.501,40.915 70.866,40.548 70.866,40.096L70.866,21.276Z" style="fill:rgb(89,89,89);"/>
                    </g>
                    <g id="Front5" serif:id="Front" transform="matrix(0.135316,-0.078125,-0,0.180422,32.013956,29.556101)">
                        <path d="M95.386,78.689C95.386,78.237 95.021,77.871 94.572,77.871L71.681,81.829C71.231,81.829 70.866,82.196 70.866,82.647L70.866,101.468C70.866,101.92 71.231,102.286 71.681,102.286L98.159,106.582C98.608,106.582 98.973,106.216 98.973,105.764L95.386,78.689Z" style="fill:rgb(89,89,89);"/>
                    </g>
                </g>
                <g id="Mince-0.2cm--1-16-6" serif:id="Mince 0.2cm, 1/16&quot;" transform="matrix(0.061381,0.127109,-0.125999,0.060845,78.655626,23.202231)">
                    <g id="Top6" serif:id="Top" transform="matrix(0.135316,-0.078125,0.15625,0.090211,31.96452,29.527559)">
                        <path d="M0,62.19C0,61.739 -0.365,61.372 -0.815,61.372L-14.06,51.714C-14.509,51.714 -14.874,52.081 -14.874,52.533L-23.622,81.011C-23.622,81.463 -23.257,81.829 -22.807,81.829L-2.52,80.708C-2.07,80.708 -1.705,80.341 -1.705,79.889L0,62.19Z" style="fill:rgb(89,89,89);"/>
                    </g>
                    <g id="Side6" serif:id="Side" transform="matrix(0.135316,0.078125,0,0.180422,31.927694,29.548821)">
                        <path d="M70.866,21.276C70.866,20.824 70.501,20.457 70.051,20.457L45.655,12.882C45.205,12.882 44.84,13.248 44.84,13.7L47.244,40.096C47.244,40.548 47.609,40.915 48.059,40.915L70.051,40.915C70.501,40.915 70.866,40.548 70.866,40.096L70.866,21.276Z" style="fill:rgb(89,89,89);"/>
                    </g>
                    <g id="Front6" serif:id="Front" transform="matrix(0.135316,-0.078125,-0,0.180422,32.013956,29.556101)">
                        <path d="M91.488,81.526C91.488,81.074 91.123,80.708 90.673,80.708L71.681,81.829C71.231,81.829 70.866,82.196 70.866,82.647L70.866,101.468C70.866,101.92 71.231,102.286 71.681,102.286L93.674,102.286C94.123,102.286 94.488,101.92 94.488,101.468L91.488,81.526Z" style="fill:rgb(89,89,89);"/>
                    </g>
                </g>
                <g id="Mince-0.2cm--1-16-7" serif:id="Mince 0.2cm, 1/16&quot;" transform="matrix(0.132932,-0.04747,0.047055,0.131771,68.031002,27.85796)">
                    <g id="Top7" serif:id="Top" transform="matrix(0.135316,-0.078125,0.15625,0.090211,31.96452,29.527559)">
                        <path d="M-7.171,67.571C-7.171,67.12 -7.536,66.753 -7.985,66.753L-22.807,61.372C-23.257,61.372 -23.622,61.739 -23.622,62.19L-23.622,81.011C-23.622,81.463 -23.257,81.829 -22.807,81.829L-0.815,81.829C-0.365,81.829 0,81.463 0,81.011L-7.171,67.571Z" style="fill:rgb(89,89,89);"/>
                    </g>
                    <g id="Side7" serif:id="Side" transform="matrix(0.135316,0.078125,0,0.180422,31.927694,29.548821)">
                        <path d="M70.866,21.276C70.866,20.824 70.501,20.457 70.051,20.457L48.059,20.457C47.609,20.457 47.244,20.824 47.244,21.276L39.995,44.466C39.995,44.918 40.36,45.284 40.81,45.284L70.051,40.915C70.501,40.915 70.866,40.548 70.866,40.096L70.866,21.276Z" style="fill:rgb(89,89,89);"/>
                    </g>
                    <g id="Front7" serif:id="Front" transform="matrix(0.135316,-0.078125,-0,0.180422,32.013956,29.556101)">
                        <path d="M94.488,82.647C94.488,82.196 94.123,81.829 93.674,81.829L71.681,81.829C71.231,81.829 70.866,82.196 70.866,82.647L70.866,101.468C70.866,101.92 71.231,102.286 71.681,102.286L93.674,102.286C94.123,102.286 94.488,101.92 94.488,101.468L94.488,82.647Z" style="fill:rgb(89,89,89);"/>
                    </g>
                </g>
                <g id="Mince-0.2cm--1-16-8" serif:id="Mince 0.2cm, 1/16&quot;" transform="matrix(0.093524,-0.105725,0.104801,0.092707,68.057013,30.669056)">
                    <g id="Top8" serif:id="Top" transform="matrix(0.135316,-0.078125,0.15625,0.090211,31.96452,29.527559)">
                        <path d="M0,62.19C0,61.739 -0.365,61.372 -0.815,61.372L-22.807,61.372C-23.257,61.372 -23.622,61.739 -23.622,62.19L-23.622,81.011C-23.622,81.463 -23.257,81.829 -22.807,81.829L-10.628,86.983C-10.179,86.983 -9.814,86.617 -9.814,86.165L0,62.19Z" style="fill:rgb(89,89,89);"/>
                    </g>
                    <g id="Side8" serif:id="Side" transform="matrix(0.135316,0.078125,0,0.180422,31.927694,29.548821)">
                        <path d="M70.866,21.276C70.866,20.824 70.501,20.457 70.051,20.457L48.059,20.457C47.609,20.457 47.244,20.824 47.244,21.276L47.244,40.096C47.244,40.548 47.609,40.915 48.059,40.915L67.772,37.084C68.222,37.084 68.587,36.717 68.587,36.265L70.866,21.276Z" style="fill:rgb(89,89,89);"/>
                    </g>
                    <g id="Front8" serif:id="Front" transform="matrix(0.135316,-0.078125,-0,0.180422,32.013956,29.556101)">
                        <path d="M90.626,87.802C90.626,87.35 90.261,86.983 89.811,86.983L71.681,81.829C71.231,81.829 70.866,82.196 70.866,82.647L68.587,95.663C68.587,96.115 68.952,96.482 69.402,96.482L80.733,97.732C81.183,97.732 81.548,97.365 81.548,96.914L90.626,87.802Z" style="fill:rgb(89,89,89);"/>
                    </g>
                </g>
                <g id="Mince-0.2cm--1-16-9" serif:id="Mince 0.2cm, 1/16&quot;" transform="matrix(0.069366,0.122934,-0.12186,0.06876,78.085586,24.093111)">
                    <g id="Top9" serif:id="Top" transform="matrix(0.135316,-0.078125,0.15625,0.090211,31.96452,29.527559)">
                        <path d="M0,62.19C0,61.739 -0.365,61.372 -0.815,61.372L-22.917,66.77C-23.367,66.77 -23.732,67.137 -23.732,67.588L-23.622,81.011C-23.622,81.463 -23.257,81.829 -22.807,81.829L-7.529,88.267C-7.079,88.267 -6.714,87.9 -6.714,87.448L0,62.19Z" style="fill:rgb(89,89,89);"/>
                    </g>
                    <g id="Side9" serif:id="Side" transform="matrix(0.135316,0.078125,0,0.180422,31.927694,29.548821)">
                        <path d="M70.866,21.276C70.866,20.824 70.501,20.457 70.051,20.457L54.182,20.552C53.732,20.552 53.367,20.919 53.367,21.371L47.244,40.096C47.244,40.548 47.609,40.915 48.059,40.915L70.051,40.915C70.501,40.915 70.866,40.548 70.866,40.096L70.866,21.276Z" style="fill:rgb(89,89,89);"/>
                    </g>
                    <g id="Front9" serif:id="Front" transform="matrix(0.135316,-0.078125,-0,0.180422,32.013956,29.556101)">
                        <path d="M95.207,89.085C95.207,88.633 94.842,88.267 94.393,88.267L71.681,81.829C71.231,81.829 70.866,82.196 70.866,82.647L70.866,101.468C70.866,101.92 71.231,102.286 71.681,102.286L93.674,102.286C94.123,102.286 94.488,101.92 94.488,101.468L95.207,89.085Z" style="fill:rgb(89,89,89);"/>
                    </g>
                </g>
                <g id="Mince-0.2cm--1-16-10" serif:id="Mince 0.2cm, 1/16&quot;" transform="matrix(0.069366,0.122934,-0.12186,0.06876,78.799602,21.902024)">
                    <g id="Top10" serif:id="Top" transform="matrix(0.135316,-0.078125,0.15625,0.090211,31.96452,29.527559)">
                        <path d="M0,62.19C0,61.739 -0.365,61.372 -0.815,61.372L-22.917,66.77C-23.367,66.77 -23.732,67.137 -23.732,67.588L-23.622,81.011C-23.622,81.463 -23.257,81.829 -22.807,81.829L-7.529,88.267C-7.079,88.267 -6.714,87.9 -6.714,87.448L0,62.19Z" style="fill:rgb(89,89,89);"/>
                    </g>
                    <g id="Side10" serif:id="Side" transform="matrix(0.135316,0.078125,0,0.180422,31.927694,29.548821)">
                        <path d="M70.866,21.276C70.866,20.824 70.501,20.457 70.051,20.457L54.182,20.552C53.732,20.552 53.367,20.919 53.367,21.371L47.244,40.096C47.244,40.548 47.609,40.915 48.059,40.915L70.051,40.915C70.501,40.915 70.866,40.548 70.866,40.096L70.866,21.276Z" style="fill:rgb(89,89,89);"/>
                    </g>
                    <g id="Front10" serif:id="Front" transform="matrix(0.135316,-0.078125,-0,0.180422,32.013956,29.556101)">
                        <path d="M95.207,89.085C95.207,88.633 94.842,88.267 94.393,88.267L71.681,81.829C71.231,81.829 70.866,82.196 70.866,82.647L70.866,101.468C70.866,101.92 71.231,102.286 71.681,102.286L93.674,102.286C94.123,102.286 94.488,101.92 94.488,101.468L95.207,89.085Z" style="fill:rgb(89,89,89);"/>
                    </g>
                </g>
                <g id="Mince-0.2cm--1-16-11" serif:id="Mince 0.2cm, 1/16&quot;" transform="matrix(0.141119,0.003141,-0.003113,0.139886,67.423956,22.429765)">
                    <g id="Top11" serif:id="Top" transform="matrix(0.135316,-0.078125,0.15625,0.090211,31.96452,29.527559)">
                        <path d="M0,62.19C0,61.739 -0.365,61.372 -0.815,61.372L-22.807,61.372C-23.257,61.372 -23.622,61.739 -23.622,62.19L-12.468,81.613C-12.468,82.065 -12.103,82.431 -11.653,82.431L-0.815,81.829C-0.365,81.829 0,81.463 0,81.011L0,62.19Z" style="fill:rgb(89,89,89);"/>
                    </g>
                    <g id="Side11" serif:id="Side" transform="matrix(0.135316,0.078125,0,0.180422,31.927694,29.548821)">
                        <path d="M82.716,11.616C82.716,11.164 82.351,10.797 81.901,10.797L48.059,20.457C47.609,20.457 47.244,20.824 47.244,21.276L47.244,40.096C47.244,40.548 47.609,40.915 48.059,40.915L62.102,41.304C62.551,41.304 62.916,40.937 62.916,40.485L82.716,11.616Z" style="fill:rgb(89,89,89);"/>
                    </g>
                    <g id="Front11" serif:id="Front" transform="matrix(0.135316,-0.078125,-0,0.180422,32.013956,29.556101)">
                        <path d="M94.488,82.647C94.488,82.196 94.123,81.829 93.674,81.829L83.531,82.431C83.081,82.431 82.716,82.798 82.716,83.25L62.916,94.973C62.916,95.424 63.281,95.791 63.731,95.791L93.674,102.286C94.123,102.286 94.488,101.92 94.488,101.468L94.488,82.647Z" style="fill:rgb(89,89,89);"/>
                    </g>
                </g>
                <g id="Mince-0.2cm--1-16-12" serif:id="Mince 0.2cm, 1/16&quot;" transform="matrix(0.135079,-0.040964,0.040606,0.133899,67.43449,25.463596)">
                    <g id="Top12" serif:id="Top" transform="matrix(0.135316,-0.078125,0.15625,0.090211,31.96452,29.527559)">
                        <path d="M-6.725,65.332C-6.725,64.88 -7.09,64.514 -7.539,64.514L-22.807,61.372C-23.257,61.372 -23.622,61.739 -23.622,62.19L-23.622,81.011C-23.622,81.463 -23.257,81.829 -22.807,81.829L-0.815,81.829C-0.365,81.829 0,81.463 0,81.011L-6.725,65.332Z" style="fill:rgb(89,89,89);"/>
                    </g>
                    <g id="Side12" serif:id="Side" transform="matrix(0.135316,0.078125,0,0.180422,31.927694,29.548821)">
                        <path d="M70.866,21.276C70.866,20.824 70.501,20.457 70.051,20.457L48.059,20.457C47.609,20.457 47.244,20.824 47.244,21.276L47.244,40.096C47.244,40.548 47.609,40.915 48.059,40.915L59.535,41.137C59.985,41.137 60.35,40.77 60.35,40.319L70.866,21.276Z" style="fill:rgb(89,89,89);"/>
                    </g>
                    <g id="Front12" serif:id="Front" transform="matrix(0.135316,-0.078125,-0,0.180422,32.013956,29.556101)">
                        <path d="M94.488,82.647C94.488,82.196 94.123,81.829 93.674,81.829L71.681,81.829C71.231,81.829 70.866,82.196 70.866,82.647L60.35,92.583C60.35,93.035 60.715,93.402 61.165,93.402L93.674,102.286C94.123,102.286 94.488,101.92 94.488,101.468L94.488,82.647Z" style="fill:rgb(89,89,89);"/>
                    </g>
                </g>
                <g id="Mince-0.2cm--1-16-13" serif:id="Mince 0.2cm, 1/16&quot;" transform="matrix(0.07902,-0.116963,0.115941,0.078329,68.522741,30.009972)">
                    <g id="Top13" serif:id="Top" transform="matrix(0.135316,-0.078125,0.15625,0.090211,31.96452,29.527559)">
                        <path d="M-6.725,65.332C-6.725,64.88 -7.09,64.514 -7.539,64.514L-22.807,61.372C-23.257,61.372 -23.622,61.739 -23.622,62.19L-23.622,81.011C-23.622,81.463 -23.257,81.829 -22.807,81.829L-0.815,81.829C-0.365,81.829 0,81.463 0,81.011L-6.725,65.332Z" style="fill:rgb(89,89,89);"/>
                    </g>
                    <g id="Side13" serif:id="Side" transform="matrix(0.135316,0.078125,0,0.180422,31.927694,29.548821)">
                        <path d="M70.866,21.276C70.866,20.824 70.501,20.457 70.051,20.457L48.059,20.457C47.609,20.457 47.244,20.824 47.244,21.276L47.244,40.096C47.244,40.548 47.609,40.915 48.059,40.915L59.535,41.137C59.985,41.137 60.35,40.77 60.35,40.319L70.866,21.276Z" style="fill:rgb(89,89,89);"/>
                    </g>
                    <g id="Front13" serif:id="Front" transform="matrix(0.135316,-0.078125,-0,0.180422,32.013956,29.556101)">
                        <path d="M94.488,82.647C94.488,82.196 94.123,81.829 93.674,81.829L71.681,81.829C71.231,81.829 70.866,82.196 70.866,82.647L60.35,92.583C60.35,93.035 60.715,93.402 61.165,93.402L93.674,102.286C94.123,102.286 94.488,101.92 94.488,101.468L94.488,82.647Z" style="fill:rgb(89,89,89);"/>
                    </g>
                </g>
                <g id="Mince-0.2cm--1-16-14" serif:id="Mince 0.2cm, 1/16&quot;" transform="matrix(0.096715,-0.102813,0.101915,0.09587,65.495831,29.478074)">
                    <g id="Top14" serif:id="Top" transform="matrix(0.135316,-0.078125,0.15625,0.090211,31.96452,29.527559)">
                        <path d="M0,62.19C0,61.739 -0.365,61.372 -0.815,61.372L-22.807,61.372C-23.257,61.372 -23.622,61.739 -23.622,62.19L-29.565,81.368C-29.565,81.82 -29.2,82.186 -28.75,82.186L-6.333,88.944C-5.883,88.944 -5.518,88.577 -5.518,88.126L0,62.19Z" style="fill:rgb(89,89,89);"/>
                    </g>
                    <g id="Side14" serif:id="Side" transform="matrix(0.135316,0.078125,0,0.180422,31.927694,29.548821)">
                        <path d="M65.336,26.422C65.336,25.971 64.971,25.604 64.521,25.604L48.059,20.457C47.609,20.457 47.244,20.824 47.244,21.276L51.365,38.204C51.365,38.655 51.73,39.022 52.179,39.022L70.051,40.915C70.501,40.915 70.866,40.548 70.866,40.096L65.336,26.422Z" style="fill:rgb(89,89,89);"/>
                    </g>
                    <g id="Front14" serif:id="Front" transform="matrix(0.135316,-0.078125,-0,0.180422,32.013956,29.556101)">
                        <path d="M97.186,89.762C97.186,89.311 96.821,88.944 96.371,88.944L66.15,82.186C65.701,82.186 65.336,82.553 65.336,83.005L70.866,101.468C70.866,101.92 71.231,102.286 71.681,102.286L93.674,102.286C94.123,102.286 94.488,101.92 94.488,101.468L97.186,89.762Z" style="fill:rgb(89,89,89);"/>
                    </g>
                </g>
                <g id="Mince-0.2cm--1-16-15" serif:id="Mince 0.2cm, 1/16&quot;" transform="matrix(0.126782,0.062054,-0.061512,0.125674,70.321984,19.386623)">
                    <g id="Top15" serif:id="Top" transform="matrix(0.135316,-0.078125,0.15625,0.090211,31.96452,29.527559)">
                        <path d="M0,62.19C0,61.739 -0.365,61.372 -0.815,61.372L-21.971,63.021C-22.421,63.021 -22.786,63.388 -22.786,63.84L-23.622,81.011C-23.622,81.463 -23.257,81.829 -22.807,81.829L4.655,77.871C5.104,77.871 5.469,77.504 5.469,77.052L0,62.19Z" style="fill:rgb(89,89,89);"/>
                    </g>
                    <g id="Side15" serif:id="Side" transform="matrix(0.135316,0.078125,0,0.180422,31.927694,29.548821)">
                        <path d="M70.866,21.276C70.866,20.824 70.501,20.457 70.051,20.457L50.8,19.733C50.35,19.733 49.985,20.1 49.985,20.551L47.244,40.096C47.244,40.548 47.609,40.915 48.059,40.915L70.051,40.915C70.501,40.915 70.866,40.548 70.866,40.096L70.866,21.276Z" style="fill:rgb(89,89,89);"/>
                    </g>
                    <g id="Front15" serif:id="Front" transform="matrix(0.135316,-0.078125,-0,0.180422,32.013956,29.556101)">
                        <path d="M95.386,78.689C95.386,78.237 95.021,77.871 94.572,77.871L71.681,81.829C71.231,81.829 70.866,82.196 70.866,82.647L70.866,101.468C70.866,101.92 71.231,102.286 71.681,102.286L98.159,106.582C98.608,106.582 98.973,106.216 98.973,105.764L95.386,78.689Z" style="fill:rgb(89,89,89);"/>
                    </g>
                </g>
                <g id="Mince-0.2cm--1-16-16" serif:id="Mince 0.2cm, 1/16&quot;" transform="matrix(-0.009155,0.140857,-0.139626,-0.009075,81.86972,21.459733)">
                    <g id="Top16" serif:id="Top" transform="matrix(0.135316,-0.078125,0.15625,0.090211,31.96452,29.527559)">
                        <path d="M0,62.19C0,61.739 -0.365,61.372 -0.815,61.372L-21.971,63.021C-22.421,63.021 -22.786,63.388 -22.786,63.84L-23.622,81.011C-23.622,81.463 -23.257,81.829 -22.807,81.829L4.655,77.871C5.104,77.871 5.469,77.504 5.469,77.052L0,62.19Z" style="fill:rgb(89,89,89);"/>
                    </g>
                    <g id="Side16" serif:id="Side" transform="matrix(0.135316,0.078125,0,0.180422,31.927694,29.548821)">
                        <path d="M70.866,21.276C70.866,20.824 70.501,20.457 70.051,20.457L50.8,19.733C50.35,19.733 49.985,20.1 49.985,20.551L47.244,40.096C47.244,40.548 47.609,40.915 48.059,40.915L70.051,40.915C70.501,40.915 70.866,40.548 70.866,40.096L70.866,21.276Z" style="fill:rgb(89,89,89);"/>
                    </g>
                    <g id="Front16" serif:id="Front" transform="matrix(0.135316,-0.078125,-0,0.180422,32.013956,29.556101)">
                        <path d="M95.386,78.689C95.386,78.237 95.021,77.871 94.572,77.871L71.681,81.829C71.231,81.829 70.866,82.196 70.866,82.647L70.866,101.468C70.866,101.92 71.231,102.286 71.681,102.286L98.159,106.582C98.608,106.582 98.973,106.216 98.973,105.764L95.386,78.689Z" style="fill:rgb(89,89,89);"/>
                    </g>
                </g>
                <g id="Mince-0.2cm--1-16-17" serif:id="Mince 0.2cm, 1/16&quot;" transform="matrix(0.109003,0.089681,-0.088898,0.108051,73.870949,19.311503)">
                    <g id="Top17" serif:id="Top" transform="matrix(0.135316,-0.078125,0.15625,0.090211,31.96452,29.527559)">
                        <path d="M0,62.19C0,61.739 -0.365,61.372 -0.815,61.372L-14.06,51.714C-14.509,51.714 -14.874,52.081 -14.874,52.533L-23.622,81.011C-23.622,81.463 -23.257,81.829 -22.807,81.829L-2.52,80.708C-2.07,80.708 -1.705,80.341 -1.705,79.889L0,62.19Z" style="fill:rgb(89,89,89);"/>
                    </g>
                    <g id="Side17" serif:id="Side" transform="matrix(0.135316,0.078125,0,0.180422,31.927694,29.548821)">
                        <path d="M70.866,21.276C70.866,20.824 70.501,20.457 70.051,20.457L45.655,12.882C45.205,12.882 44.84,13.248 44.84,13.7L47.244,40.096C47.244,40.548 47.609,40.915 48.059,40.915L70.051,40.915C70.501,40.915 70.866,40.548 70.866,40.096L70.866,21.276Z" style="fill:rgb(89,89,89);"/>
                    </g>
                    <g id="Front17" serif:id="Front" transform="matrix(0.135316,-0.078125,-0,0.180422,32.013956,29.556101)">
                        <path d="M91.488,81.526C91.488,81.074 91.123,80.708 90.673,80.708L71.681,81.829C71.231,81.829 70.866,82.196 70.866,82.647L70.866,101.468C70.866,101.92 71.231,102.286 71.681,102.286L93.674,102.286C94.123,102.286 94.488,101.92 94.488,101.468L91.488,81.526Z" style="fill:rgb(89,89,89);"/>
                    </g>
                </g>
                <g id="Mince-0.2cm--1-16-18" serif:id="Mince 0.2cm, 1/16&quot;" transform="matrix(0.100799,-0.098813,0.09795,0.099918,66.175754,27.991505)">
                    <g id="Top18" serif:id="Top" transform="matrix(0.135316,-0.078125,0.15625,0.090211,31.96452,29.527559)">
                        <path d="M-7.171,67.571C-7.171,67.12 -7.536,66.753 -7.985,66.753L-22.807,61.372C-23.257,61.372 -23.622,61.739 -23.622,62.19L-23.622,81.011C-23.622,81.463 -23.257,81.829 -22.807,81.829L-0.815,81.829C-0.365,81.829 0,81.463 0,81.011L-7.171,67.571Z" style="fill:rgb(89,89,89);"/>
                    </g>
                    <g id="Side18" serif:id="Side" transform="matrix(0.135316,0.078125,0,0.180422,31.927694,29.548821)">
                        <path d="M70.866,21.276C70.866,20.824 70.501,20.457 70.051,20.457L48.059,20.457C47.609,20.457 47.244,20.824 47.244,21.276L39.995,44.466C39.995,44.918 40.36,45.284 40.81,45.284L70.051,40.915C70.501,40.915 70.866,40.548 70.866,40.096L70.866,21.276Z" style="fill:rgb(89,89,89);"/>
                    </g>
                    <g id="Front18" serif:id="Front" transform="matrix(0.135316,-0.078125,-0,0.180422,32.013956,29.556101)">
                        <path d="M94.488,82.647C94.488,82.196 94.123,81.829 93.674,81.829L71.681,81.829C71.231,81.829 70.866,82.196 70.866,82.647L70.866,101.468C70.866,101.92 71.231,102.286 71.681,102.286L93.674,102.286C94.123,102.286 94.488,101.92 94.488,101.468L94.488,82.647Z" style="fill:rgb(89,89,89);"/>
                    </g>
                </g>
                <g id="Mince-0.2cm--1-16-19" serif:id="Mince 0.2cm, 1/16&quot;" transform="matrix(0.040603,-0.135188,0.134007,0.040248,67.377533,30.532895)">
                    <g id="Top19" serif:id="Top" transform="matrix(0.135316,-0.078125,0.15625,0.090211,31.96452,29.527559)">
                        <path d="M0,62.19C0,61.739 -0.365,61.372 -0.815,61.372L-22.807,61.372C-23.257,61.372 -23.622,61.739 -23.622,62.19L-23.622,81.011C-23.622,81.463 -23.257,81.829 -22.807,81.829L-10.628,86.983C-10.179,86.983 -9.814,86.617 -9.814,86.165L0,62.19Z" style="fill:rgb(89,89,89);"/>
                    </g>
                    <g id="Side19" serif:id="Side" transform="matrix(0.135316,0.078125,0,0.180422,31.927694,29.548821)">
                        <path d="M70.866,21.276C70.866,20.824 70.501,20.457 70.051,20.457L48.059,20.457C47.609,20.457 47.244,20.824 47.244,21.276L47.244,40.096C47.244,40.548 47.609,40.915 48.059,40.915L67.772,37.084C68.222,37.084 68.587,36.717 68.587,36.265L70.866,21.276Z" style="fill:rgb(89,89,89);"/>
                    </g>
                    <g id="Front19" serif:id="Front" transform="matrix(0.135316,-0.078125,-0,0.180422,32.013956,29.556101)">
                        <path d="M90.626,87.802C90.626,87.35 90.261,86.983 89.811,86.983L71.681,81.829C71.231,81.829 70.866,82.196 70.866,82.647L68.587,95.663C68.587,96.115 68.952,96.482 69.402,96.482L80.733,97.732C81.183,97.732 81.548,97.365 81.548,96.914L90.626,87.802Z" style="fill:rgb(89,89,89);"/>
                    </g>
                </g>
                <g id="Mince-0.2cm--1-16-20" serif:id="Mince 0.2cm, 1/16&quot;" transform="matrix(0.114503,0.082544,-0.081823,0.113502,73.726767,20.359274)">
                    <g id="Top20" serif:id="Top" transform="matrix(0.135316,-0.078125,0.15625,0.090211,31.96452,29.527559)">
                        <path d="M0,62.19C0,61.739 -0.365,61.372 -0.815,61.372L-22.917,66.77C-23.367,66.77 -23.732,67.137 -23.732,67.588L-23.622,81.011C-23.622,81.463 -23.257,81.829 -22.807,81.829L-7.529,88.267C-7.079,88.267 -6.714,87.9 -6.714,87.448L0,62.19Z" style="fill:rgb(89,89,89);"/>
                    </g>
                    <g id="Side20" serif:id="Side" transform="matrix(0.135316,0.078125,0,0.180422,31.927694,29.548821)">
                        <path d="M70.866,21.276C70.866,20.824 70.501,20.457 70.051,20.457L54.182,20.552C53.732,20.552 53.367,20.919 53.367,21.371L47.244,40.096C47.244,40.548 47.609,40.915 48.059,40.915L70.051,40.915C70.501,40.915 70.866,40.548 70.866,40.096L70.866,21.276Z" style="fill:rgb(89,89,89);"/>
                    </g>
                    <g id="Front20" serif:id="Front" transform="matrix(0.135316,-0.078125,-0,0.180422,32.013956,29.556101)">
                        <path d="M95.207,89.085C95.207,88.633 94.842,88.267 94.393,88.267L71.681,81.829C71.231,81.829 70.866,82.196 70.866,82.647L70.866,101.468C70.866,101.92 71.231,102.286 71.681,102.286L93.674,102.286C94.123,102.286 94.488,101.92 94.488,101.468L95.207,89.085Z" style="fill:rgb(89,89,89);"/>
                    </g>
                </g>
                <g id="Mince-0.2cm--1-16-21" serif:id="Mince 0.2cm, 1/16&quot;" transform="matrix(0.114503,0.082544,-0.081823,0.113502,73.456737,18.070657)">
                    <g id="Top21" serif:id="Top" transform="matrix(0.135316,-0.078125,0.15625,0.090211,31.96452,29.527559)">
                        <path d="M0,62.19C0,61.739 -0.365,61.372 -0.815,61.372L-22.917,66.77C-23.367,66.77 -23.732,67.137 -23.732,67.588L-23.622,81.011C-23.622,81.463 -23.257,81.829 -22.807,81.829L-7.529,88.267C-7.079,88.267 -6.714,87.9 -6.714,87.448L0,62.19Z" style="fill:rgb(89,89,89);"/>
                    </g>
                    <g id="Side21" serif:id="Side" transform="matrix(0.135316,0.078125,0,0.180422,31.927694,29.548821)">
                        <path d="M70.866,21.276C70.866,20.824 70.501,20.457 70.051,20.457L54.182,20.552C53.732,20.552 53.367,20.919 53.367,21.371L47.244,40.096C47.244,40.548 47.609,40.915 48.059,40.915L70.051,40.915C70.501,40.915 70.866,40.548 70.866,40.096L70.866,21.276Z" style="fill:rgb(89,89,89);"/>
                    </g>
                    <g id="Front21" serif:id="Front" transform="matrix(0.135316,-0.078125,-0,0.180422,32.013956,29.556101)">
                        <path d="M95.207,89.085C95.207,88.633 94.842,88.267 94.393,88.267L71.681,81.829C71.231,81.829 70.866,82.196 70.866,82.647L70.866,101.468C70.866,101.92 71.231,102.286 71.681,102.286L93.674,102.286C94.123,102.286 94.488,101.92 94.488,101.468L95.207,89.085Z" style="fill:rgb(89,89,89);"/>
                    </g>
                </g>
                <g id="Mince-0.2cm--1-16-22" serif:id="Mince 0.2cm, 1/16&quot;" transform="matrix(0.059232,0.128125,-0.127005,0.058715,80.258423,18.865504)">
                    <g id="Top22" serif:id="Top" transform="matrix(0.135316,-0.078125,0.15625,0.090211,31.96452,29.527559)">
                        <path d="M0,62.19C0,61.739 -0.365,61.372 -0.815,61.372L-22.807,61.372C-23.257,61.372 -23.622,61.739 -23.622,62.19L-12.468,81.613C-12.468,82.065 -12.103,82.431 -11.653,82.431L-0.815,81.829C-0.365,81.829 0,81.463 0,81.011L0,62.19Z" style="fill:rgb(89,89,89);"/>
                    </g>
                    <g id="Side22" serif:id="Side" transform="matrix(0.135316,0.078125,0,0.180422,31.927694,29.548821)">
                        <path d="M82.716,11.616C82.716,11.164 82.351,10.797 81.901,10.797L48.059,20.457C47.609,20.457 47.244,20.824 47.244,21.276L47.244,40.096C47.244,40.548 47.609,40.915 48.059,40.915L62.102,41.304C62.551,41.304 62.916,40.937 62.916,40.485L82.716,11.616Z" style="fill:rgb(89,89,89);"/>
                    </g>
                    <g id="Front22" serif:id="Front" transform="matrix(0.135316,-0.078125,-0,0.180422,32.013956,29.556101)">
                        <path d="M94.488,82.647C94.488,82.196 94.123,81.829 93.674,81.829L83.531,82.431C83.081,82.431 82.716,82.798 82.716,83.25L62.916,94.973C62.916,95.424 63.281,95.791 63.731,95.791L93.674,102.286C94.123,102.286 94.488,101.92 94.488,101.468L94.488,82.647Z" style="fill:rgb(89,89,89);"/>
                    </g>
                </g>
                <g id="Mince-0.2cm--1-16-23" serif:id="Mince 0.2cm, 1/16&quot;" transform="matrix(0.096188,0.103307,-0.102404,0.095348,77.538268,20.209007)">
                    <g id="Top23" serif:id="Top" transform="matrix(0.135316,-0.078125,0.15625,0.090211,31.96452,29.527559)">
                        <path d="M-6.725,65.332C-6.725,64.88 -7.09,64.514 -7.539,64.514L-22.807,61.372C-23.257,61.372 -23.622,61.739 -23.622,62.19L-23.622,81.011C-23.622,81.463 -23.257,81.829 -22.807,81.829L-0.815,81.829C-0.365,81.829 0,81.463 0,81.011L-6.725,65.332Z" style="fill:rgb(89,89,89);"/>
                    </g>
                    <g id="Side23" serif:id="Side" transform="matrix(0.135316,0.078125,0,0.180422,31.927694,29.548821)">
                        <path d="M70.866,21.276C70.866,20.824 70.501,20.457 70.051,20.457L48.059,20.457C47.609,20.457 47.244,20.824 47.244,21.276L47.244,40.096C47.244,40.548 47.609,40.915 48.059,40.915L59.535,41.137C59.985,41.137 60.35,40.77 60.35,40.319L70.866,21.276Z" style="fill:rgb(89,89,89);"/>
                    </g>
                    <g id="Front23" serif:id="Front" transform="matrix(0.135316,-0.078125,-0,0.180422,32.013956,29.556101)">
                        <path d="M94.488,82.647C94.488,82.196 94.123,81.829 93.674,81.829L71.681,81.829C71.231,81.829 70.866,82.196 70.866,82.647L60.35,92.583C60.35,93.035 60.715,93.402 61.165,93.402L93.674,102.286C94.123,102.286 94.488,101.92 94.488,101.468L94.488,82.647Z" style="fill:rgb(89,89,89);"/>
                    </g>
                </g>
                <g id="Mince-0.2cm--1-16-24" serif:id="Mince 0.2cm, 1/16&quot;" transform="matrix(0.139795,0.019539,-0.019369,0.138574,73.933542,23.185544)">
                    <g id="Top24" serif:id="Top" transform="matrix(0.135316,-0.078125,0.15625,0.090211,31.96452,29.527559)">
                        <path d="M-6.725,65.332C-6.725,64.88 -7.09,64.514 -7.539,64.514L-22.807,61.372C-23.257,61.372 -23.622,61.739 -23.622,62.19L-23.622,81.011C-23.622,81.463 -23.257,81.829 -22.807,81.829L-0.815,81.829C-0.365,81.829 0,81.463 0,81.011L-6.725,65.332Z" style="fill:rgb(89,89,89);"/>
                    </g>
                    <g id="Side24" serif:id="Side" transform="matrix(0.135316,0.078125,0,0.180422,31.927694,29.548821)">
                        <path d="M70.866,21.276C70.866,20.824 70.501,20.457 70.051,20.457L48.059,20.457C47.609,20.457 47.244,20.824 47.244,21.276L47.244,40.096C47.244,40.548 47.609,40.915 48.059,40.915L59.535,41.137C59.985,41.137 60.35,40.77 60.35,40.319L70.866,21.276Z" style="fill:rgb(89,89,89);"/>
                    </g>
                    <g id="Front24" serif:id="Front" transform="matrix(0.135316,-0.078125,-0,0.180422,32.013956,29.556101)">
                        <path d="M94.488,82.647C94.488,82.196 94.123,81.829 93.674,81.829L71.681,81.829C71.231,81.829 70.866,82.196 70.866,82.647L60.35,92.583C60.35,93.035 60.715,93.402 61.165,93.402L93.674,102.286C94.123,102.286 94.488,101.92 94.488,101.468L94.488,82.647Z" style="fill:rgb(89,89,89);"/>
                    </g>
                </g>
                <g id="Mince-0.2cm--1-16-25" serif:id="Mince 0.2cm, 1/16&quot;" transform="matrix(0.134868,0.041654,-0.04129,0.13369,73.080259,20.233086)">
                    <g id="Top25" serif:id="Top" transform="matrix(0.135316,-0.078125,0.15625,0.090211,31.96452,29.527559)">
                        <path d="M0,62.19C0,61.739 -0.365,61.372 -0.815,61.372L-22.807,61.372C-23.257,61.372 -23.622,61.739 -23.622,62.19L-29.565,81.368C-29.565,81.82 -29.2,82.186 -28.75,82.186L-6.333,88.944C-5.883,88.944 -5.518,88.577 -5.518,88.126L0,62.19Z" style="fill:rgb(89,89,89);"/>
                    </g>
                    <g id="Side25" serif:id="Side" transform="matrix(0.135316,0.078125,0,0.180422,31.927694,29.548821)">
                        <path d="M65.336,26.422C65.336,25.971 64.971,25.604 64.521,25.604L48.059,20.457C47.609,20.457 47.244,20.824 47.244,21.276L51.365,38.204C51.365,38.655 51.73,39.022 52.179,39.022L70.051,40.915C70.501,40.915 70.866,40.548 70.866,40.096L65.336,26.422Z" style="fill:rgb(89,89,89);"/>
                    </g>
                    <g id="Front25" serif:id="Front" transform="matrix(0.135316,-0.078125,-0,0.180422,32.013956,29.556101)">
                        <path d="M97.186,89.762C97.186,89.311 96.821,88.944 96.371,88.944L66.15,82.186C65.701,82.186 65.336,82.553 65.336,83.005L70.866,101.468C70.866,101.92 71.231,102.286 71.681,102.286L93.674,102.286C94.123,102.286 94.488,101.92 94.488,101.468L97.186,89.762Z" style="fill:rgb(89,89,89);"/>
                    </g>
                </g>
                <g id="Mince-0.2cm--1-16-26" serif:id="Mince 0.2cm, 1/16&quot;" transform="matrix(0.000016,0.141154,-0.139921,0.000016,84.265899,20.130186)">
                    <g id="Top26" serif:id="Top" transform="matrix(0.135316,-0.078125,0.15625,0.090211,31.96452,29.527559)">
                        <path d="M0,62.19C0,61.739 -0.365,61.372 -0.815,61.372L-21.971,63.021C-22.421,63.021 -22.786,63.388 -22.786,63.84L-23.622,81.011C-23.622,81.463 -23.257,81.829 -22.807,81.829L4.655,77.871C5.104,77.871 5.469,77.504 5.469,77.052L0,62.19Z" style="fill:rgb(89,89,89);"/>
                    </g>
                    <g id="Side26" serif:id="Side" transform="matrix(0.135316,0.078125,0,0.180422,31.927694,29.548821)">
                        <path d="M70.866,21.276C70.866,20.824 70.501,20.457 70.051,20.457L50.8,19.733C50.35,19.733 49.985,20.1 49.985,20.551L47.244,40.096C47.244,40.548 47.609,40.915 48.059,40.915L70.051,40.915C70.501,40.915 70.866,40.548 70.866,40.096L70.866,21.276Z" style="fill:rgb(89,89,89);"/>
                    </g>
                    <g id="Front26" serif:id="Front" transform="matrix(0.135316,-0.078125,-0,0.180422,32.013956,29.556101)">
                        <path d="M95.386,78.689C95.386,78.237 95.021,77.871 94.572,77.871L71.681,81.829C71.231,81.829 70.866,82.196 70.866,82.647L70.866,101.468C70.866,101.92 71.231,102.286 71.681,102.286L98.159,106.582C98.608,106.582 98.973,106.216 98.973,105.764L95.386,78.689Z" style="fill:rgb(89,89,89);"/>
                    </g>
                </g>
                <g id="Mince-0.2cm--1-16-27" serif:id="Mince 0.2cm, 1/16&quot;" transform="matrix(-0.130534,0.053716,-0.053246,-0.129393,87.481761,31.413191)">
                    <g id="Top27" serif:id="Top" transform="matrix(0.135316,-0.078125,0.15625,0.090211,31.96452,29.527559)">
                        <path d="M0,62.19C0,61.739 -0.365,61.372 -0.815,61.372L-21.971,63.021C-22.421,63.021 -22.786,63.388 -22.786,63.84L-23.622,81.011C-23.622,81.463 -23.257,81.829 -22.807,81.829L4.655,77.871C5.104,77.871 5.469,77.504 5.469,77.052L0,62.19Z" style="fill:rgb(89,89,89);"/>
                    </g>
                    <g id="Side27" serif:id="Side" transform="matrix(0.135316,0.078125,0,0.180422,31.927694,29.548821)">
                        <path d="M70.866,21.276C70.866,20.824 70.501,20.457 70.051,20.457L50.8,19.733C50.35,19.733 49.985,20.1 49.985,20.551L47.244,40.096C47.244,40.548 47.609,40.915 48.059,40.915L70.051,40.915C70.501,40.915 70.866,40.548 70.866,40.096L70.866,21.276Z" style="fill:rgb(89,89,89);"/>
                    </g>
                    <g id="Front27" serif:id="Front" transform="matrix(0.135316,-0.078125,-0,0.180422,32.013956,29.556101)">
                        <path d="M95.386,78.689C95.386,78.237 95.021,77.871 94.572,77.871L71.681,81.829C71.231,81.829 70.866,82.196 70.866,82.647L70.866,101.468C70.866,101.92 71.231,102.286 71.681,102.286L98.159,106.582C98.608,106.582 98.973,106.216 98.973,105.764L95.386,78.689Z" style="fill:rgb(89,89,89);"/>
                    </g>
                </g>
                <g id="Mince-0.2cm--1-16-28" serif:id="Mince 0.2cm, 1/16&quot;" transform="matrix(-0.032615,0.137334,-0.136134,-0.03233,85.893924,23.284599)">
                    <g id="Top28" serif:id="Top" transform="matrix(0.135316,-0.078125,0.15625,0.090211,31.96452,29.527559)">
                        <path d="M0,62.19C0,61.739 -0.365,61.372 -0.815,61.372L-14.06,51.714C-14.509,51.714 -14.874,52.081 -14.874,52.533L-23.622,81.011C-23.622,81.463 -23.257,81.829 -22.807,81.829L-2.52,80.708C-2.07,80.708 -1.705,80.341 -1.705,79.889L0,62.19Z" style="fill:rgb(89,89,89);"/>
                    </g>
                    <g id="Side28" serif:id="Side" transform="matrix(0.135316,0.078125,0,0.180422,31.927694,29.548821)">
                        <path d="M70.866,21.276C70.866,20.824 70.501,20.457 70.051,20.457L45.655,12.882C45.205,12.882 44.84,13.248 44.84,13.7L47.244,40.096C47.244,40.548 47.609,40.915 48.059,40.915L70.051,40.915C70.501,40.915 70.866,40.548 70.866,40.096L70.866,21.276Z" style="fill:rgb(89,89,89);"/>
                    </g>
                    <g id="Front28" serif:id="Front" transform="matrix(0.135316,-0.078125,-0,0.180422,32.013956,29.556101)">
                        <path d="M91.488,81.526C91.488,81.074 91.123,80.708 90.673,80.708L71.681,81.829C71.231,81.829 70.866,82.196 70.866,82.647L70.866,101.468C70.866,101.92 71.231,102.286 71.681,102.286L93.674,102.286C94.123,102.286 94.488,101.92 94.488,101.468L91.488,81.526Z" style="fill:rgb(89,89,89);"/>
                    </g>
                </g>
                <g id="Mince-0.2cm--1-16-29" serif:id="Mince 0.2cm, 1/16&quot;" transform="matrix(0.133071,0.04708,-0.046669,0.131908,74.714373,20.190071)">
                    <g id="Top29" serif:id="Top" transform="matrix(0.135316,-0.078125,0.15625,0.090211,31.96452,29.527559)">
                        <path d="M-7.171,67.571C-7.171,67.12 -7.536,66.753 -7.985,66.753L-22.807,61.372C-23.257,61.372 -23.622,61.739 -23.622,62.19L-23.622,81.011C-23.622,81.463 -23.257,81.829 -22.807,81.829L-0.815,81.829C-0.365,81.829 0,81.463 0,81.011L-7.171,67.571Z" style="fill:rgb(89,89,89);"/>
                    </g>
                    <g id="Side29" serif:id="Side" transform="matrix(0.135316,0.078125,0,0.180422,31.927694,29.548821)">
                        <path d="M70.866,21.276C70.866,20.824 70.501,20.457 70.051,20.457L48.059,20.457C47.609,20.457 47.244,20.824 47.244,21.276L39.995,44.466C39.995,44.918 40.36,45.284 40.81,45.284L70.051,40.915C70.501,40.915 70.866,40.548 70.866,40.096L70.866,21.276Z" style="fill:rgb(89,89,89);"/>
                    </g>
                    <g id="Front29" serif:id="Front" transform="matrix(0.135316,-0.078125,-0,0.180422,32.013956,29.556101)">
                        <path d="M94.488,82.647C94.488,82.196 94.123,81.829 93.674,81.829L71.681,81.829C71.231,81.829 70.866,82.196 70.866,82.647L70.866,101.468C70.866,101.92 71.231,102.286 71.681,102.286L93.674,102.286C94.123,102.286 94.488,101.92 94.488,101.468L94.488,82.647Z" style="fill:rgb(89,89,89);"/>
                    </g>
                </g>
                <g id="Mince-0.2cm--1-16-30" serif:id="Mince 0.2cm, 1/16&quot;" transform="matrix(0.139271,-0.022978,0.022777,0.138054,72.960314,22.386935)">
                    <g id="Top30" serif:id="Top" transform="matrix(0.135316,-0.078125,0.15625,0.090211,31.96452,29.527559)">
                        <path d="M0,62.19C0,61.739 -0.365,61.372 -0.815,61.372L-22.807,61.372C-23.257,61.372 -23.622,61.739 -23.622,62.19L-23.622,81.011C-23.622,81.463 -23.257,81.829 -22.807,81.829L-10.628,86.983C-10.179,86.983 -9.814,86.617 -9.814,86.165L0,62.19Z" style="fill:rgb(89,89,89);"/>
                    </g>
                    <g id="Side30" serif:id="Side" transform="matrix(0.135316,0.078125,0,0.180422,31.927694,29.548821)">
                        <path d="M70.866,21.276C70.866,20.824 70.501,20.457 70.051,20.457L48.059,20.457C47.609,20.457 47.244,20.824 47.244,21.276L47.244,40.096C47.244,40.548 47.609,40.915 48.059,40.915L67.772,37.084C68.222,37.084 68.587,36.717 68.587,36.265L70.866,21.276Z" style="fill:rgb(89,89,89);"/>
                    </g>
                    <g id="Front30" serif:id="Front" transform="matrix(0.135316,-0.078125,-0,0.180422,32.013956,29.556101)">
                        <path d="M90.626,87.802C90.626,87.35 90.261,86.983 89.811,86.983L71.681,81.829C71.231,81.829 70.866,82.196 70.866,82.647L68.587,95.663C68.587,96.115 68.952,96.482 69.402,96.482L80.733,97.732C81.183,97.732 81.548,97.365 81.548,96.914L90.626,87.802Z" style="fill:rgb(89,89,89);"/>
                    </g>
                </g>
                <g id="Mince-0.2cm--1-16-31" serif:id="Mince 0.2cm, 1/16&quot;" transform="matrix(-0.023787,0.139135,-0.13792,-0.023579,84.889486,23.615833)">
                    <g id="Top31" serif:id="Top" transform="matrix(0.135316,-0.078125,0.15625,0.090211,31.96452,29.527559)">
                        <path d="M0,62.19C0,61.739 -0.365,61.372 -0.815,61.372L-22.917,66.77C-23.367,66.77 -23.732,67.137 -23.732,67.588L-23.622,81.011C-23.622,81.463 -23.257,81.829 -22.807,81.829L-7.529,88.267C-7.079,88.267 -6.714,87.9 -6.714,87.448L0,62.19Z" style="fill:rgb(89,89,89);"/>
                    </g>
                    <g id="Side31" serif:id="Side" transform="matrix(0.135316,0.078125,0,0.180422,31.927694,29.548821)">
                        <path d="M70.866,21.276C70.866,20.824 70.501,20.457 70.051,20.457L54.182,20.552C53.732,20.552 53.367,20.919 53.367,21.371L47.244,40.096C47.244,40.548 47.609,40.915 48.059,40.915L70.051,40.915C70.501,40.915 70.866,40.548 70.866,40.096L70.866,21.276Z" style="fill:rgb(89,89,89);"/>
                    </g>
                    <g id="Front31" serif:id="Front" transform="matrix(0.135316,-0.078125,-0,0.180422,32.013956,29.556101)">
                        <path d="M95.207,89.085C95.207,88.633 94.842,88.267 94.393,88.267L71.681,81.829C71.231,81.829 70.866,82.196 70.866,82.647L70.866,101.468C70.866,101.92 71.231,102.286 71.681,102.286L93.674,102.286C94.123,102.286 94.488,101.92 94.488,101.468L95.207,89.085Z" style="fill:rgb(89,89,89);"/>
                    </g>
                </g>
                <g id="Mince-0.2cm--1-16-32" serif:id="Mince 0.2cm, 1/16&quot;" transform="matrix(-0.023787,0.139135,-0.13792,-0.023579,86.826232,22.366955)">
                    <g id="Top32" serif:id="Top" transform="matrix(0.135316,-0.078125,0.15625,0.090211,31.96452,29.527559)">
                        <path d="M0,62.19C0,61.739 -0.365,61.372 -0.815,61.372L-22.917,66.77C-23.367,66.77 -23.732,67.137 -23.732,67.588L-23.622,81.011C-23.622,81.463 -23.257,81.829 -22.807,81.829L-7.529,88.267C-7.079,88.267 -6.714,87.9 -6.714,87.448L0,62.19Z" style="fill:rgb(89,89,89);"/>
                    </g>
                    <g id="Side32" serif:id="Side" transform="matrix(0.135316,0.078125,0,0.180422,31.927694,29.548821)">
                        <path d="M70.866,21.276C70.866,20.824 70.501,20.457 70.051,20.457L54.182,20.552C53.732,20.552 53.367,20.919 53.367,21.371L47.244,40.096C47.244,40.548 47.609,40.915 48.059,40.915L70.051,40.915C70.501,40.915 70.866,40.548 70.866,40.096L70.866,21.276Z" style="fill:rgb(89,89,89);"/>
                    </g>
                    <g id="Front32" serif:id="Front" transform="matrix(0.135316,-0.078125,-0,0.180422,32.013956,29.556101)">
                        <path d="M95.207,89.085C95.207,88.633 94.842,88.267 94.393,88.267L71.681,81.829C71.231,81.829 70.866,82.196 70.866,82.647L70.866,101.468C70.866,101.92 71.231,102.286 71.681,102.286L93.674,102.286C94.123,102.286 94.488,101.92 94.488,101.468L95.207,89.085Z" style="fill:rgb(89,89,89);"/>
                    </g>
                </g>
                <g id="Mince-0.2cm--1-16-33" serif:id="Mince 0.2cm, 1/16&quot;" transform="matrix(0.138789,-0.025728,0.025503,0.137577,69.729884,21.796343)">
                    <g id="Top33" serif:id="Top" transform="matrix(0.135316,-0.078125,0.15625,0.090211,31.96452,29.527559)">
                        <path d="M0,62.19C0,61.739 -0.365,61.372 -0.815,61.372L-22.807,61.372C-23.257,61.372 -23.622,61.739 -23.622,62.19L-12.468,81.613C-12.468,82.065 -12.103,82.431 -11.653,82.431L-0.815,81.829C-0.365,81.829 0,81.463 0,81.011L0,62.19Z" style="fill:rgb(89,89,89);"/>
                    </g>
                    <g id="Side33" serif:id="Side" transform="matrix(0.135316,0.078125,0,0.180422,31.927694,29.548821)">
                        <path d="M82.716,11.616C82.716,11.164 82.351,10.797 81.901,10.797L48.059,20.457C47.609,20.457 47.244,20.824 47.244,21.276L47.244,40.096C47.244,40.548 47.609,40.915 48.059,40.915L62.102,41.304C62.551,41.304 62.916,40.937 62.916,40.485L82.716,11.616Z" style="fill:rgb(89,89,89);"/>
                    </g>
                    <g id="Front33" serif:id="Front" transform="matrix(0.135316,-0.078125,-0,0.180422,32.013956,29.556101)">
                        <path d="M94.488,82.647C94.488,82.196 94.123,81.829 93.674,81.829L83.531,82.431C83.081,82.431 82.716,82.798 82.716,83.25L62.916,94.973C62.916,95.424 63.281,95.791 63.731,95.791L93.674,102.286C94.123,102.286 94.488,101.92 94.488,101.468L94.488,82.647Z" style="fill:rgb(89,89,89);"/>
                    </g>
                </g>
                <g id="Mince-0.2cm--1-16-34" serif:id="Mince 0.2cm, 1/16&quot;" transform="matrix(0.123875,-0.067671,0.06708,0.122793,70.730643,30.691512)">
                    <g id="Top34" serif:id="Top" transform="matrix(0.135316,-0.078125,0.15625,0.090211,31.96452,29.527559)">
                        <path d="M-6.725,65.332C-6.725,64.88 -7.09,64.514 -7.539,64.514L-22.807,61.372C-23.257,61.372 -23.622,61.739 -23.622,62.19L-23.622,81.011C-23.622,81.463 -23.257,81.829 -22.807,81.829L-0.815,81.829C-0.365,81.829 0,81.463 0,81.011L-6.725,65.332Z" style="fill:rgb(89,89,89);"/>
                    </g>
                    <g id="Side34" serif:id="Side" transform="matrix(0.135316,0.078125,0,0.180422,31.927694,29.548821)">
                        <path d="M70.866,21.276C70.866,20.824 70.501,20.457 70.051,20.457L48.059,20.457C47.609,20.457 47.244,20.824 47.244,21.276L47.244,40.096C47.244,40.548 47.609,40.915 48.059,40.915L59.535,41.137C59.985,41.137 60.35,40.77 60.35,40.319L70.866,21.276Z" style="fill:rgb(89,89,89);"/>
                    </g>
                    <g id="Front34" serif:id="Front" transform="matrix(0.135316,-0.078125,-0,0.180422,32.013956,29.556101)">
                        <path d="M94.488,82.647C94.488,82.196 94.123,81.829 93.674,81.829L71.681,81.829C71.231,81.829 70.866,82.196 70.866,82.647L60.35,92.583C60.35,93.035 60.715,93.402 61.165,93.402L93.674,102.286C94.123,102.286 94.488,101.92 94.488,101.468L94.488,82.647Z" style="fill:rgb(89,89,89);"/>
                    </g>
                </g>
                <g id="Mince-0.2cm--1-16-35" serif:id="Mince 0.2cm, 1/16&quot;" transform="matrix(0.053484,-0.130629,0.129487,0.053017,73.816366,33.073326)">
                    <g id="Top35" serif:id="Top" transform="matrix(0.135316,-0.078125,0.15625,0.090211,31.96452,29.527559)">
                        <path d="M-6.725,65.332C-6.725,64.88 -7.09,64.514 -7.539,64.514L-22.807,61.372C-23.257,61.372 -23.622,61.739 -23.622,62.19L-23.622,81.011C-23.622,81.463 -23.257,81.829 -22.807,81.829L-0.815,81.829C-0.365,81.829 0,81.463 0,81.011L-6.725,65.332Z" style="fill:rgb(89,89,89);"/>
                    </g>
                    <g id="Side35" serif:id="Side" transform="matrix(0.135316,0.078125,0,0.180422,31.927694,29.548821)">
                        <path d="M70.866,21.276C70.866,20.824 70.501,20.457 70.051,20.457L48.059,20.457C47.609,20.457 47.244,20.824 47.244,21.276L47.244,40.096C47.244,40.548 47.609,40.915 48.059,40.915L59.535,41.137C59.985,41.137 60.35,40.77 60.35,40.319L70.866,21.276Z" style="fill:rgb(89,89,89);"/>
                    </g>
                    <g id="Front35" serif:id="Front" transform="matrix(0.135316,-0.078125,-0,0.180422,32.013956,29.556101)">
                        <path d="M94.488,82.647C94.488,82.196 94.123,81.829 93.674,81.829L71.681,81.829C71.231,81.829 70.866,82.196 70.866,82.647L60.35,92.583C60.35,93.035 60.715,93.402 61.165,93.402L93.674,102.286C94.123,102.286 94.488,101.92 94.488,101.468L94.488,82.647Z" style="fill:rgb(89,89,89);"/>
                    </g>
                </g>
                <g id="Mince-0.2cm--1-16-36" serif:id="Mince 0.2cm, 1/16&quot;" transform="matrix(0.073695,-0.120389,0.119337,0.073051,68.511781,31.273151)">
                    <g id="Top36" serif:id="Top" transform="matrix(0.135316,-0.078125,0.15625,0.090211,31.96452,29.527559)">
                        <path d="M0,62.19C0,61.739 -0.365,61.372 -0.815,61.372L-22.807,61.372C-23.257,61.372 -23.622,61.739 -23.622,62.19L-29.565,81.368C-29.565,81.82 -29.2,82.186 -28.75,82.186L-6.333,88.944C-5.883,88.944 -5.518,88.577 -5.518,88.126L0,62.19Z" style="fill:rgb(89,89,89);"/>
                    </g>
                    <g id="Side36" serif:id="Side" transform="matrix(0.135316,0.078125,0,0.180422,31.927694,29.548821)">
                        <path d="M65.336,26.422C65.336,25.971 64.971,25.604 64.521,25.604L48.059,20.457C47.609,20.457 47.244,20.824 47.244,21.276L51.365,38.204C51.365,38.655 51.73,39.022 52.179,39.022L70.051,40.915C70.501,40.915 70.866,40.548 70.866,40.096L65.336,26.422Z" style="fill:rgb(89,89,89);"/>
                    </g>
                    <g id="Front36" serif:id="Front" transform="matrix(0.135316,-0.078125,-0,0.180422,32.013956,29.556101)">
                        <path d="M97.186,89.762C97.186,89.311 96.821,88.944 96.371,88.944L66.15,82.186C65.701,82.186 65.336,82.553 65.336,83.005L70.866,101.468C70.866,101.92 71.231,102.286 71.681,102.286L93.674,102.286C94.123,102.286 94.488,101.92 94.488,101.468L97.186,89.762Z" style="fill:rgb(89,89,89);"/>
                    </g>
                </g>
                <g id="Mince-0.2cm--1-16-37" serif:id="Mince 0.2cm, 1/16&quot;" transform="matrix(0.136779,0.034872,-0.034567,0.135583,73.781773,23.535411)">
                    <g id="Top37" serif:id="Top" transform="matrix(0.135316,-0.078125,0.15625,0.090211,31.96452,29.527559)">
                        <path d="M0,62.19C0,61.739 -0.365,61.372 -0.815,61.372L-21.971,63.021C-22.421,63.021 -22.786,63.388 -22.786,63.84L-23.622,81.011C-23.622,81.463 -23.257,81.829 -22.807,81.829L4.655,77.871C5.104,77.871 5.469,77.504 5.469,77.052L0,62.19Z" style="fill:rgb(89,89,89);"/>
                    </g>
                    <g id="Side37" serif:id="Side" transform="matrix(0.135316,0.078125,0,0.180422,31.927694,29.548821)">
                        <path d="M70.866,21.276C70.866,20.824 70.501,20.457 70.051,20.457L50.8,19.733C50.35,19.733 49.985,20.1 49.985,20.551L47.244,40.096C47.244,40.548 47.609,40.915 48.059,40.915L70.051,40.915C70.501,40.915 70.866,40.548 70.866,40.096L70.866,21.276Z" style="fill:rgb(89,89,89);"/>
                    </g>
                    <g id="Front37" serif:id="Front" transform="matrix(0.135316,-0.078125,-0,0.180422,32.013956,29.556101)">
                        <path d="M95.386,78.689C95.386,78.237 95.021,77.871 94.572,77.871L71.681,81.829C71.231,81.829 70.866,82.196 70.866,82.647L70.866,101.468C70.866,101.92 71.231,102.286 71.681,102.286L98.159,106.582C98.608,106.582 98.973,106.216 98.973,105.764L95.386,78.689Z" style="fill:rgb(89,89,89);"/>
                    </g>
                </g>
                <g id="Mince-0.2cm--1-16-38" serif:id="Mince 0.2cm, 1/16&quot;" transform="matrix(0.019787,0.13976,-0.138539,0.019614,85.608809,24.473161)">
                    <g id="Top38" serif:id="Top" transform="matrix(0.135316,-0.078125,0.15625,0.090211,31.96452,29.527559)">
                        <path d="M0,62.19C0,61.739 -0.365,61.372 -0.815,61.372L-21.971,63.021C-22.421,63.021 -22.786,63.388 -22.786,63.84L-23.622,81.011C-23.622,81.463 -23.257,81.829 -22.807,81.829L4.655,77.871C5.104,77.871 5.469,77.504 5.469,77.052L0,62.19Z" style="fill:rgb(89,89,89);"/>
                    </g>
                    <g id="Side38" serif:id="Side" transform="matrix(0.135316,0.078125,0,0.180422,31.927694,29.548821)">
                        <path d="M70.866,21.276C70.866,20.824 70.501,20.457 70.051,20.457L50.8,19.733C50.35,19.733 49.985,20.1 49.985,20.551L47.244,40.096C47.244,40.548 47.609,40.915 48.059,40.915L70.051,40.915C70.501,40.915 70.866,40.548 70.866,40.096L70.866,21.276Z" style="fill:rgb(89,89,89);"/>
                    </g>
                    <g id="Front38" serif:id="Front" transform="matrix(0.135316,-0.078125,-0,0.180422,32.013956,29.556101)">
                        <path d="M95.386,78.689C95.386,78.237 95.021,77.871 94.572,77.871L71.681,81.829C71.231,81.829 70.866,82.196 70.866,82.647L70.866,101.468C70.866,101.92 71.231,102.286 71.681,102.286L98.159,106.582C98.608,106.582 98.973,106.216 98.973,105.764L95.386,78.689Z" style="fill:rgb(89,89,89);"/>
                    </g>
                </g>
                <g id="Mince-0.2cm--1-16-39" serif:id="Mince 0.2cm, 1/16&quot;" transform="matrix(0.125013,0.065546,-0.064973,0.12392,77.339958,24.002704)">
                    <g id="Top39" serif:id="Top" transform="matrix(0.135316,-0.078125,0.15625,0.090211,31.96452,29.527559)">
                        <path d="M0,62.19C0,61.739 -0.365,61.372 -0.815,61.372L-14.06,51.714C-14.509,51.714 -14.874,52.081 -14.874,52.533L-23.622,81.011C-23.622,81.463 -23.257,81.829 -22.807,81.829L-2.52,80.708C-2.07,80.708 -1.705,80.341 -1.705,79.889L0,62.19Z" style="fill:rgb(89,89,89);"/>
                    </g>
                    <g id="Side39" serif:id="Side" transform="matrix(0.135316,0.078125,0,0.180422,31.927694,29.548821)">
                        <path d="M70.866,21.276C70.866,20.824 70.501,20.457 70.051,20.457L45.655,12.882C45.205,12.882 44.84,13.248 44.84,13.7L47.244,40.096C47.244,40.548 47.609,40.915 48.059,40.915L70.051,40.915C70.501,40.915 70.866,40.548 70.866,40.096L70.866,21.276Z" style="fill:rgb(89,89,89);"/>
                    </g>
                    <g id="Front39" serif:id="Front" transform="matrix(0.135316,-0.078125,-0,0.180422,32.013956,29.556101)">
                        <path d="M91.488,81.526C91.488,81.074 91.123,80.708 90.673,80.708L71.681,81.829C71.231,81.829 70.866,82.196 70.866,82.647L70.866,101.468C70.866,101.92 71.231,102.286 71.681,102.286L93.674,102.286C94.123,102.286 94.488,101.92 94.488,101.468L91.488,81.526Z" style="fill:rgb(89,89,89);"/>
                    </g>
                </g>
                <g id="Mince-0.2cm--1-16-40" serif:id="Mince 0.2cm, 1/16&quot;" transform="matrix(0.078509,-0.117306,0.116281,0.077823,70.75959,33.248619)">
                    <g id="Top40" serif:id="Top" transform="matrix(0.135316,-0.078125,0.15625,0.090211,31.96452,29.527559)">
                        <path d="M-7.171,67.571C-7.171,67.12 -7.536,66.753 -7.985,66.753L-22.807,61.372C-23.257,61.372 -23.622,61.739 -23.622,62.19L-23.622,81.011C-23.622,81.463 -23.257,81.829 -22.807,81.829L-0.815,81.829C-0.365,81.829 0,81.463 0,81.011L-7.171,67.571Z" style="fill:rgb(89,89,89);"/>
                    </g>
                    <g id="Side40" serif:id="Side" transform="matrix(0.135316,0.078125,0,0.180422,31.927694,29.548821)">
                        <path d="M70.866,21.276C70.866,20.824 70.501,20.457 70.051,20.457L48.059,20.457C47.609,20.457 47.244,20.824 47.244,21.276L39.995,44.466C39.995,44.918 40.36,45.284 40.81,45.284L70.051,40.915C70.501,40.915 70.866,40.548 70.866,40.096L70.866,21.276Z" style="fill:rgb(89,89,89);"/>
                    </g>
                    <g id="Front40" serif:id="Front" transform="matrix(0.135316,-0.078125,-0,0.180422,32.013956,29.556101)">
                        <path d="M94.488,82.647C94.488,82.196 94.123,81.829 93.674,81.829L71.681,81.829C71.231,81.829 70.866,82.196 70.866,82.647L70.866,101.468C70.866,101.92 71.231,102.286 71.681,102.286L93.674,102.286C94.123,102.286 94.488,101.92 94.488,101.468L94.488,82.647Z" style="fill:rgb(89,89,89);"/>
                    </g>
                </g>
                <g id="Mince-0.2cm--1-16-41" serif:id="Mince 0.2cm, 1/16&quot;" transform="matrix(0.012157,-0.140629,0.139401,0.01205,72.008179,34.64375)">
                    <g id="Top41" serif:id="Top" transform="matrix(0.135316,-0.078125,0.15625,0.090211,31.96452,29.527559)">
                        <path d="M0,62.19C0,61.739 -0.365,61.372 -0.815,61.372L-22.807,61.372C-23.257,61.372 -23.622,61.739 -23.622,62.19L-23.622,81.011C-23.622,81.463 -23.257,81.829 -22.807,81.829L-10.628,86.983C-10.179,86.983 -9.814,86.617 -9.814,86.165L0,62.19Z" style="fill:rgb(89,89,89);"/>
                    </g>
                    <g id="Side41" serif:id="Side" transform="matrix(0.135316,0.078125,0,0.180422,31.927694,29.548821)">
                        <path d="M70.866,21.276C70.866,20.824 70.501,20.457 70.051,20.457L48.059,20.457C47.609,20.457 47.244,20.824 47.244,21.276L47.244,40.096C47.244,40.548 47.609,40.915 48.059,40.915L67.772,37.084C68.222,37.084 68.587,36.717 68.587,36.265L70.866,21.276Z" style="fill:rgb(89,89,89);"/>
                    </g>
                    <g id="Front41" serif:id="Front" transform="matrix(0.135316,-0.078125,-0,0.180422,32.013956,29.556101)">
                        <path d="M90.626,87.802C90.626,87.35 90.261,86.983 89.811,86.983L71.681,81.829C71.231,81.829 70.866,82.196 70.866,82.647L68.587,95.663C68.587,96.115 68.952,96.482 69.402,96.482L80.733,97.732C81.183,97.732 81.548,97.365 81.548,96.914L90.626,87.802Z" style="fill:rgb(89,89,89);"/>
                    </g>
                </g>
                <g id="Mince-0.2cm--1-16-42" serif:id="Mince 0.2cm, 1/16&quot;" transform="matrix(0.12894,0.057437,-0.056935,0.127813,76.371717,24.89345)">
                    <g id="Top42" serif:id="Top" transform="matrix(0.135316,-0.078125,0.15625,0.090211,31.96452,29.527559)">
                        <path d="M0,62.19C0,61.739 -0.365,61.372 -0.815,61.372L-22.917,66.77C-23.367,66.77 -23.732,67.137 -23.732,67.588L-23.622,81.011C-23.622,81.463 -23.257,81.829 -22.807,81.829L-7.529,88.267C-7.079,88.267 -6.714,87.9 -6.714,87.448L0,62.19Z" style="fill:rgb(89,89,89);"/>
                    </g>
                    <g id="Side42" serif:id="Side" transform="matrix(0.135316,0.078125,0,0.180422,31.927694,29.548821)">
                        <path d="M70.866,21.276C70.866,20.824 70.501,20.457 70.051,20.457L54.182,20.552C53.732,20.552 53.367,20.919 53.367,21.371L47.244,40.096C47.244,40.548 47.609,40.915 48.059,40.915L70.051,40.915C70.501,40.915 70.866,40.548 70.866,40.096L70.866,21.276Z" style="fill:rgb(89,89,89);"/>
                    </g>
                    <g id="Front42" serif:id="Front" transform="matrix(0.135316,-0.078125,-0,0.180422,32.013956,29.556101)">
                        <path d="M95.207,89.085C95.207,88.633 94.842,88.267 94.393,88.267L71.681,81.829C71.231,81.829 70.866,82.196 70.866,82.647L70.866,101.468C70.866,101.92 71.231,102.286 71.681,102.286L93.674,102.286C94.123,102.286 94.488,101.92 94.488,101.468L95.207,89.085Z" style="fill:rgb(89,89,89);"/>
                    </g>
                </g>
                <g id="Mince-0.2cm--1-16-43" serif:id="Mince 0.2cm, 1/16&quot;" transform="matrix(0.12894,0.057437,-0.056935,0.127813,76.681209,22.872519)">
                    <g id="Top43" serif:id="Top" transform="matrix(0.135316,-0.078125,0.15625,0.090211,31.96452,29.527559)">
                        <path d="M0,62.19C0,61.739 -0.365,61.372 -0.815,61.372L-22.917,66.77C-23.367,66.77 -23.732,67.137 -23.732,67.588L-23.622,81.011C-23.622,81.463 -23.257,81.829 -22.807,81.829L-7.529,88.267C-7.079,88.267 -6.714,87.9 -6.714,87.448L0,62.19Z" style="fill:rgb(89,89,89);"/>
                    </g>
                    <g id="Side43" serif:id="Side" transform="matrix(0.135316,0.078125,0,0.180422,31.927694,29.548821)">
                        <path d="M70.866,21.276C70.866,20.824 70.501,20.457 70.051,20.457L54.182,20.552C53.732,20.552 53.367,20.919 53.367,21.371L47.244,40.096C47.244,40.548 47.609,40.915 48.059,40.915L70.051,40.915C70.501,40.915 70.866,40.548 70.866,40.096L70.866,21.276Z" style="fill:rgb(89,89,89);"/>
                    </g>
                    <g id="Front43" serif:id="Front" transform="matrix(0.135316,-0.078125,-0,0.180422,32.013956,29.556101)">
                        <path d="M95.207,89.085C95.207,88.633 94.842,88.267 94.393,88.267L71.681,81.829C71.231,81.829 70.866,82.196 70.866,82.647L70.866,101.468C70.866,101.92 71.231,102.286 71.681,102.286L93.674,102.286C94.123,102.286 94.488,101.92 94.488,101.468L95.207,89.085Z" style="fill:rgb(89,89,89);"/>
                    </g>
                </g>
            </g>
        </g>
    </g>
</svg>
